<?xml version="1.0" encoding="UTF-8" standalone="no"?>
<svg width="640px" height="1136px" viewBox="0 0 640 1136" version="1.1" xmlns="http://www.w3.org/2000/svg" xmlns:xlink="http://www.w3.org/1999/xlink" xmlns:sketch="http://www.bohemiancoding.com/sketch/ns">
    <!-- Generator: Sketch 3.1.1 (8761) - http://www.bohemiancoding.com/sketch -->
    <title>Start Here</title>
    <desc>Created with Sketch.</desc>
    <defs>
        <linearGradient x1="50%" y1="0%" x2="50%" y2="100%" id="linearGradient-1">
            <stop stop-color="#F8F8F8" offset="0%"></stop>
            <stop stop-color="#F9F9F9" offset="48.0847263%"></stop>
            <stop stop-color="#F8F8F8" offset="100%"></stop>
        </linearGradient>
        <rect id="path-2" x="0" y="0" width="79" height="79" rx="8"></rect>
    </defs>
    <g id="Welcome" stroke="none" stroke-width="1" fill="none" fill-rule="evenodd" sketch:type="MSPage">
        <g id="Start-Here" sketch:type="MSArtboardGroup">
            <g id="Navigation-/-Menubar-2" sketch:type="MSLayerGroup">
                <g id="Menubar-Background" sketch:type="MSShapeGroup">
                    <rect id="Background" fill-opacity="0.65" fill="url(#linearGradient-1)" x="0" y="0" width="640" height="128"></rect>
                    <rect id="Line" opacity="0.4" fill="#000000" x="0" y="128" width="640" height="1"></rect>
                </g>
                <text id="Tweetboat-Plus" fill="#000000" sketch:type="MSTextLayer" font-family="Helvetica Neue" font-size="34" font-weight="420" sketch:alignment="middle">
                    <tspan x="200.191" y="96">Tweetboat Plus</tspan>
                </text>
                <g id="Status-Bar-/-Black">
                    <rect id="Background" fill-opacity="0" fill="#FFFFFF" sketch:type="MSShapeGroup" x="0" y="0" width="640" height="41"></rect>
                    <g id="Charge" transform="translate(524.000000, 6.000000)">
                        <g id="Battery-Icon" transform="translate(56.000000, 5.000000)" sketch:type="MSShapeGroup">
                            <rect id="Battery" stroke="#000000" x="0" y="0" width="45" height="19" rx="3"></rect>
                            <rect id="Charge" stroke="#000000" fill="#000000" x="2" y="2" width="17" height="15" rx="2"></rect>
                            <path d="M49,9.46455558 C49,11.2277927 47.6961455,12.6864982 46,12.9291112 L46,6 C47.6961455,6.24261297 49,7.70131842 49,9.46455558 Z" id="+" fill="#000000"></path>
                        </g>
                        <text id="42%" fill="#000000" sketch:type="MSTextLayer" font-family="Helvetica Neue" font-size="24" font-weight="normal">
                            <tspan x="0" y="23">42%</tspan>
                        </text>
                    </g>
                    <path d="M502.855529,28.7378929 L502.855529,21.6214643 L506.279529,25.3503571 L502.855529,28.7378929 L502.855529,28.7378929 L502.855529,28.7378929 L502.855529,28.7378929 Z M506.436706,14.6930714 L502.855529,18.2956429 L502.855529,11.4704286 L506.436706,14.6930714 L506.436706,14.6930714 L506.436706,14.6930714 L506.436706,14.6930714 Z M503.715765,20.0217143 L509.029647,14.6930714 L501.101176,7 L500.913882,7 L500.913882,17.6997143 L495.532235,12.0576786 L494,13.6583929 L500.475294,20.0217143 L494,26.3840714 L495.532235,27.9847857 L500.913882,22.34275 L500.913882,33.0415 L501.256471,33.0415 L509.106824,25.3291429 L503.715765,20.0217143 L503.715765,20.0217143 Z" id="Bluetooth-Icon" opacity="0.45" fill="#000000" sketch:type="MSShapeGroup"></path>
                    <path d="M175.991503,14.0417534 C179.871048,14.0417534 183.406722,15.4709041 186.117706,17.8143562 L188,15.7362192 C184.789204,12.9489315 180.595777,11 175.991503,11 C171.394227,11 167.206797,12.9430137 164,15.7214247 L165.878296,17.8025205 C168.58728,15.4659726 172.116956,14.0417534 175.991503,14.0417534 L175.991503,14.0417534 Z M175.991503,20.0404384 C178.316631,20.0404384 180.440835,20.8847123 182.07922,22.2753973 L184.070474,20.0759452 C181.903286,18.2157808 179.084343,17.0006575 175.991503,17.0006575 C172.904661,17.0006575 170.087717,18.2128219 167.922529,20.0670685 L169.910783,22.2694795 C171.548169,20.8817534 173.669374,20.0404384 175.991503,20.0404384 L175.991503,20.0404384 Z M180.086967,24.4748493 C178.978383,23.5546301 177.550918,22.9174795 175.990504,22.9174795 C174.433088,22.9174795 173.007622,23.5536438 171.899038,24.4699178 L175.990504,29 L180.086967,24.4748493 L180.086967,24.4748493 Z" id="Wifi" fill="#0C0000" sketch:type="MSShapeGroup"></path>
                    <g id="Signal" transform="translate(13.000000, 15.000000)" sketch:type="MSShapeGroup">
                        <circle id="Oval-1" fill="#000000" cx="5.5" cy="5.5" r="5.5"></circle>
                        <circle id="Oval-1-copy" fill="#000000" cx="19.5" cy="5.5" r="5.5"></circle>
                        <circle id="Oval-1-copy-2" fill="#000000" cx="33.5" cy="5.5" r="5.5"></circle>
                        <circle id="Oval-1-copy-3" stroke="#000000" cx="47.5" cy="5.5" r="5.5"></circle>
                        <circle id="Oval-1-copy-4" stroke="#000000" cx="61.5" cy="5.5" r="5.5"></circle>
                    </g>
                    <text id="Sketch" fill="#000000" sketch:type="MSTextLayer" font-family="Helvetica Neue" font-size="23" font-weight="normal">
                        <tspan x="87" y="29">Sketch</tspan>
                    </text>
                    <text id="9:41-AM" fill="#000000" sketch:type="MSTextLayer" font-family="Helvetica Neue" font-size="24" font-weight="420" sketch:alignment="middle" letter-spacing="1.19999981">
                        <tspan x="270.440001" y="29">9:41 AM</tspan>
                    </text>
                </g>
            </g>
            <rect id="Rectangle-13" stroke="#979797" fill="#D8D8D8" sketch:type="MSShapeGroup" x="0" y="128" width="640" height="180"></rect>
            <rect id="Rectangle-10" stroke="#979797" fill="#D8D8D8" sketch:type="MSShapeGroup" x="26" y="218" width="79" height="79" rx="8"></rect>
            <g id="Rectangle-14-+-Enter-Username" sketch:type="MSLayerGroup" transform="translate(27.000000, 145.000000)" stroke="#979797">
                <rect id="Rectangle-14" fill="#FFFFFF" sketch:type="MSShapeGroup" x="0" y="0" width="522" height="60" rx="8"></rect>
                <text id="Enter-Username" sketch:type="MSTextLayer" font-family="Helvetica Neue" font-size="34" font-weight="normal" fill="#545454">
                    <tspan x="14" y="41">Enter Username</tspan>
                </text>
            </g>
            <text id="Go" opacity="0.502273787" fill="#0079FF" sketch:type="MSTextLayer" font-family="Helvetica Neue" font-size="34" font-weight="normal" sketch:alignment="right">
                <tspan x="566.678" y="184">Go</tspan>
            </text>
            <text id="Bob-Spryn" sketch:type="MSTextLayer" font-family="Helvetica Neue" font-size="34" font-weight="normal" fill="#000000">
                <tspan x="118" y="267">Bob Spryn</tspan>
            </text>
            <g id="Group" sketch:type="MSLayerGroup" transform="translate(0.000000, 307.000000)">
                <rect id="Rectangle-13" stroke="#979797" fill="#FFFFFF" sketch:type="MSShapeGroup" x="0" y="0" width="640" height="170"></rect>
                <text id="Fred-Anderson" sketch:type="MSTextLayer" font-family="Helvetica Neue" font-size="34" font-weight="normal" fill="#929292">
                    <tspan x="27" y="149">Fred Anderson</tspan>
                </text>
                <text id="@sprynmr-Are-you-eve" sketch:type="MSTextLayer" font-family="Helvetica Neue" font-size="34" font-weight="normal" fill="#000000">
                    <tspan x="121" y="53">@sprynmr Are you ever going</tspan>
                    <tspan x="121" y="93">to finish that RAC/MVVM blog?</tspan>
                </text>
                <rect id="Rectangle-9" stroke="#979797" fill="#D8D8D8" sketch:type="MSShapeGroup" x="26" y="20" width="79" height="79" rx="8"></rect>
            </g>
            <g id="Group" sketch:type="MSLayerGroup" transform="translate(0.000000, 476.000000)">
                <rect id="Rectangle-13" stroke="#979797" fill="#FFFFFF" sketch:type="MSShapeGroup" x="0" y="0" width="640" height="201"></rect>
                <text id="Rod-Campbell" sketch:type="MSTextLayer" font-family="Helvetica Neue" font-size="34" font-weight="normal" fill="#979797">
                    <tspan x="27" y="173">Rod Campbell</tspan>
                </text>
                <text id="@sprynmr-Seriously,-" sketch:type="MSTextLayer" font-family="Helvetica Neue" font-size="34" font-weight="normal" fill="#000000">
                    <tspan x="121" y="45">@sprynmr Seriously, you said </tspan>
                    <tspan x="121" y="85">you would have that blog entry </tspan>
                    <tspan x="121" y="125">done a month ago.</tspan>
                </text>
                <rect id="Rectangle-9" stroke="#979797" fill="#D8D8D8" sketch:type="MSShapeGroup" x="26" y="20" width="79" height="79" rx="8"></rect>
            </g>
            <g id="Group" sketch:type="MSLayerGroup" transform="translate(0.000000, 676.000000)">
                <rect id="Rectangle-13" stroke="#979797" fill="#FFFFFF" sketch:type="MSShapeGroup" x="0" y="0" width="640" height="201"></rect>
                <text id="My-Wife" sketch:type="MSTextLayer" font-family="Helvetica Neue" font-size="34" font-weight="normal" fill="#979797">
                    <tspan x="27" y="173">My Wife</tspan>
                </text>
                <text id="@sprynmr-Are-you-spe" sketch:type="MSTextLayer" font-family="Helvetica Neue" font-size="34" font-weight="normal" fill="#000000">
                    <tspan x="121" y="45">@sprynmr Are you spending </tspan>
                    <tspan x="121" y="85">time on that damn blog article </tspan>
                    <tspan x="121" y="125">again?</tspan>
                </text>
                <rect id="Rectangle-9" stroke="#979797" fill="#D8D8D8" sketch:type="MSShapeGroup" x="26" y="20" width="79" height="79" rx="8"></rect>
            </g>
            <g id="Group" sketch:type="MSLayerGroup" transform="translate(0.000000, 875.000000)">
                <rect id="Rectangle-13" stroke="#979797" fill="#FFFFFF" sketch:type="MSShapeGroup" x="0" y="0" width="640" height="170"></rect>
                <text id="Bob-Spryn" sketch:type="MSTextLayer" font-family="Helvetica Neue" font-size="34" font-weight="normal" fill="#979797">
                    <tspan x="27" y="149">Bob Spryn</tspan>
                </text>
                <text id="@sprynmr-I-believe-i" sketch:type="MSTextLayer" font-family="Helvetica Neue" font-size="34" font-weight="normal" fill="#000000">
                    <tspan x="121" y="45">@sprynmr I believe in you. You </tspan>
                    <tspan x="121" y="85">can do it. Etc.</tspan>
                </text>
                <rect id="Rectangle-9" stroke="#979797" fill="#D8D8D8" sketch:type="MSShapeGroup" x="26" y="20" width="79" height="79" rx="8"></rect>
            </g>
            <g id="Group" sketch:type="MSLayerGroup" transform="translate(0.000000, 1043.000000)">
                <rect id="Rectangle-13" stroke="#979797" fill="#FFFFFF" sketch:type="MSShapeGroup" x="0" y="0" width="640" height="170"></rect>
                <text id="@sprynmr-Oh-captain," sketch:type="MSTextLayer" font-family="Helvetica Neue" font-size="34" font-weight="normal" fill="#000000">
                    <tspan x="121" y="45">@sprynmr Oh captain, my </tspan>
                    <tspan x="121" y="85">captain.</tspan>
                </text>
                <rect id="Rectangle-9" stroke="#979797" fill="#D8D8D8" sketch:type="MSShapeGroup" x="26" y="20" width="79" height="79" rx="8"></rect>
            </g>
            <g id="Oval-6" sketch:type="MSLayerGroup" transform="translate(26.000000, 217.000000)">
                <mask id="mask-3" sketch:name="Mask" fill="white">
                    <use xlink:href="#path-2"></use>
                </mask>
                <use id="Mask" sketch:type="MSShapeGroup" xlink:href="#path-2"></use>
                <circle stroke="#979797" fill="#4A4A4A" sketch:type="MSShapeGroup" mask="url(#mask-3)" cx="40" cy="76" r="28"></circle>
            </g>
            <circle id="Oval-6" stroke="#979797" fill="#4A4A4A" sketch:type="MSShapeGroup" cx="66.5" cy="254.5" r="20.5"></circle>
        </g>
    </g>
</svg>